<?xml version="1.0"?>
<svg xmlns="http://www.w3.org/2000/svg" xmlns:xlink="http://www.w3.org/1999/xlink" viewBox="0 0 236.100000 200.000000" width="118.050000mm" height="100.000000mm" version="1.1">
<a xlink:href="bypass2-0x7fa31015bb40.svg">
<rect x="1.000000" y="1.000000" width="235.100000" height="199.000000" rx="0" ry="0" style="stroke:none;fill:#cccccc;"/>
<rect x="0.000000" y="0.000000" width="235.100000" height="199.000000" rx="0" ry="0" style="stroke:none;fill:#ffffff;"/>
</a>
<text x="10.000000" y="7.000000" font-family="Arial" font-size="7"></text>
<a xlink:href="params-0x7fa310009df0.svg">
<rect x="41.000000" y="25.000000" width="77.400000" height="32.000000" rx="0" ry="0" style="stroke:none;fill:#cccccc;"/>
<rect x="40.000000" y="24.000000" width="77.400000" height="32.000000" rx="0" ry="0" style="stroke:none;fill:#003366;"/>
</a>
<a xlink:href="params-0x7fa310009df0.svg">
<text x="78.700000" y="42.000000" font-family="Arial" font-size="7" text-anchor="middle" fill="#FFFFFF">params_cue_toggles</text>
</a>
<circle cx="42.000000" cy="26.000000" r="1"/>
<rect x="75.700000" y="73.000000" width="24.000000" height="24.000000" rx="0" ry="0" style="stroke:none;fill:#cccccc;"/>
<rect x="74.700000" y="72.000000" width="24.000000" height="24.000000" rx="0" ry="0" style="stroke:none;fill:#f44800;"/>
<text x="86.700000" y="86.000000" font-family="Arial" font-size="7" text-anchor="middle" fill="#FFFFFF">0</text>
<circle cx="76.700000" cy="74.000000" r="1"/>
<rect x="158.400000" y="49.000000" width="38.700000" height="24.000000" rx="0" ry="0" style="stroke:none;fill:#cccccc;"/>
<rect x="157.400000" y="48.000000" width="38.700000" height="24.000000" rx="0" ry="0" style="stroke:none;fill:#4B71A1;"/>
<text x="176.750000" y="62.000000" font-family="Arial" font-size="7" text-anchor="middle" fill="#FFFFFF">select2</text>
<circle cx="159.400000" cy="50.000000" r="1"/>
<line x1="154.400000" y1="51.000000" x2="157.400000" y2="52.000000"  transform="rotate(0.000000,157.400000,52.000000)" style="stroke: black; stroke-width:0.25;"/>
<line x1="154.400000" y1="53.000000" x2="157.400000" y2="52.000000"  transform="rotate(0.000000,157.400000,52.000000)" style="stroke: black; stroke-width:0.25;"/>
<line x1="154.400000" y1="59.000000" x2="157.400000" y2="60.000000"  transform="rotate(0.000000,157.400000,60.000000)" style="stroke: black; stroke-width:0.25;"/>
<line x1="154.400000" y1="61.000000" x2="157.400000" y2="60.000000"  transform="rotate(0.000000,157.400000,60.000000)" style="stroke: black; stroke-width:0.25;"/>
<line x1="154.400000" y1="67.000000" x2="157.400000" y2="68.000000"  transform="rotate(0.000000,157.400000,68.000000)" style="stroke: black; stroke-width:0.25;"/>
<line x1="154.400000" y1="69.000000" x2="157.400000" y2="68.000000"  transform="rotate(0.000000,157.400000,68.000000)" style="stroke: black; stroke-width:0.25;"/>
<a xlink:href="params-0x7fa310009df0.svg">
<rect x="41.000000" y="105.000000" width="77.400000" height="32.000000" rx="0" ry="0" style="stroke:none;fill:#cccccc;"/>
<rect x="40.000000" y="104.000000" width="77.400000" height="32.000000" rx="0" ry="0" style="stroke:none;fill:#003366;"/>
</a>
<a xlink:href="params-0x7fa310009df0.svg">
<text x="78.700000" y="122.000000" font-family="Arial" font-size="7" text-anchor="middle" fill="#FFFFFF">params_cue_toggles</text>
</a>
<circle cx="42.000000" cy="106.000000" r="1"/>
<rect x="75.700000" y="153.000000" width="24.000000" height="24.000000" rx="0" ry="0" style="stroke:none;fill:#cccccc;"/>
<rect x="74.700000" y="152.000000" width="24.000000" height="24.000000" rx="0" ry="0" style="stroke:none;fill:#f44800;"/>
<text x="86.700000" y="166.000000" font-family="Arial" font-size="7" text-anchor="middle" fill="#FFFFFF">0</text>
<circle cx="76.700000" cy="154.000000" r="1"/>
<rect x="158.400000" y="129.000000" width="38.700000" height="24.000000" rx="0" ry="0" style="stroke:none;fill:#cccccc;"/>
<rect x="157.400000" y="128.000000" width="38.700000" height="24.000000" rx="0" ry="0" style="stroke:none;fill:#4B71A1;"/>
<text x="176.750000" y="142.000000" font-family="Arial" font-size="7" text-anchor="middle" fill="#FFFFFF">select2</text>
<circle cx="159.400000" cy="130.000000" r="1"/>
<line x1="154.400000" y1="131.000000" x2="157.400000" y2="132.000000"  transform="rotate(0.000000,157.400000,132.000000)" style="stroke: black; stroke-width:0.25;"/>
<line x1="154.400000" y1="133.000000" x2="157.400000" y2="132.000000"  transform="rotate(0.000000,157.400000,132.000000)" style="stroke: black; stroke-width:0.25;"/>
<line x1="154.400000" y1="139.000000" x2="157.400000" y2="140.000000"  transform="rotate(0.000000,157.400000,140.000000)" style="stroke: black; stroke-width:0.25;"/>
<line x1="154.400000" y1="141.000000" x2="157.400000" y2="140.000000"  transform="rotate(0.000000,157.400000,140.000000)" style="stroke: black; stroke-width:0.25;"/>
<line x1="154.400000" y1="147.000000" x2="157.400000" y2="148.000000"  transform="rotate(0.000000,157.400000,148.000000)" style="stroke: black; stroke-width:0.25;"/>
<line x1="154.400000" y1="149.000000" x2="157.400000" y2="148.000000"  transform="rotate(0.000000,157.400000,148.000000)" style="stroke: black; stroke-width:0.25;"/>
<line x1="15.000000" y1="15.000000" x2="15.000000" y2="185.000000"  style="stroke: black; stroke-linecap:round; stroke-width:0.25; stroke-dasharray:3,3;"/>
<line x1="15.000000" y1="185.000000" x2="221.100000" y2="185.000000"  style="stroke: black; stroke-linecap:round; stroke-width:0.25; stroke-dasharray:3,3;"/>
<line x1="221.100000" y1="185.000000" x2="221.100000" y2="15.000000"  style="stroke: black; stroke-linecap:round; stroke-width:0.25; stroke-dasharray:3,3;"/>
<line x1="15.000000" y1="15.000000" x2="20.000000" y2="15.000000"  style="stroke: black; stroke-linecap:round; stroke-width:0.25; stroke-dasharray:3,3;"/>
<line x1="52.250000" y1="15.000000" x2="221.100000" y2="15.000000"  style="stroke: black; stroke-linecap:round; stroke-width:0.25; stroke-dasharray:3,3;"/>
<text x="20.000000" y="17.000000" font-family="Arial" font-size="7">inswitch</text>
<line x1="223.100000" y1="95.000000" x2="226.100000" y2="96.000000"  transform="rotate(0.000000,226.100000,96.000000)" style="stroke: black; stroke-width:0.25;"/>
<line x1="223.100000" y1="97.000000" x2="226.100000" y2="96.000000"  transform="rotate(0.000000,226.100000,96.000000)" style="stroke: black; stroke-width:0.25;"/>
<line x1="223.100000" y1="103.000000" x2="226.100000" y2="104.000000"  transform="rotate(0.000000,226.100000,104.000000)" style="stroke: black; stroke-width:0.25;"/>
<line x1="223.100000" y1="105.000000" x2="226.100000" y2="104.000000"  transform="rotate(0.000000,226.100000,104.000000)" style="stroke: black; stroke-width:0.25;"/>
<line x1="10.000000" y1="96.000000" x2="20.000000" y2="96.000000"  style="stroke:black; stroke-linecap:round; stroke-width:0.25;"/>
<line x1="10.000000" y1="104.000000" x2="20.000000" y2="104.000000"  style="stroke:black; stroke-linecap:round; stroke-width:0.25;"/>
<line x1="20.000000" y1="96.000000" x2="24.000000" y2="96.000000"  style="stroke:black; stroke-linecap:round; stroke-width:0.25;"/>
<line x1="20.000000" y1="104.000000" x2="24.000000" y2="104.000000"  style="stroke:black; stroke-linecap:round; stroke-width:0.25;"/>
<line x1="24.000000" y1="96.000000" x2="28.000000" y2="96.000000"  style="stroke:black; stroke-linecap:round; stroke-width:0.25;"/>
<line x1="24.000000" y1="104.000000" x2="28.000000" y2="104.000000"  style="stroke:black; stroke-linecap:round; stroke-width:0.25;"/>
<line x1="28.000000" y1="64.000000" x2="36.000000" y2="64.000000"  style="stroke:black; stroke-linecap:round; stroke-width:0.25;"/>
<line x1="28.000000" y1="96.000000" x2="28.000000" y2="64.000000"  style="stroke:black; stroke-linecap:round; stroke-width:0.25;"/>
<line x1="28.000000" y1="96.000000" x2="28.000000" y2="96.000000"  style="stroke:black; stroke-linecap:round; stroke-width:0.25;"/>
<line x1="28.000000" y1="104.000000" x2="28.000000" y2="104.000000"  style="stroke:black; stroke-linecap:round; stroke-width:0.25;"/>
<line x1="28.000000" y1="104.000000" x2="36.000000" y2="104.000000"  style="stroke:black; stroke-linecap:round; stroke-width:0.25;"/>
<line x1="36.000000" y1="64.000000" x2="70.700000" y2="64.000000"  style="stroke:black; stroke-linecap:round; stroke-width:0.25;"/>
<line x1="36.000000" y1="144.000000" x2="70.700000" y2="144.000000"  style="stroke:black; stroke-linecap:round; stroke-width:0.25;"/>
<line x1="36.000000" y1="104.000000" x2="36.000000" y2="144.000000"  style="stroke:black; stroke-linecap:round; stroke-width:0.25;"/>
<line x1="36.000000" y1="144.000000" x2="36.000000" y2="144.000000"  style="stroke:black; stroke-linecap:round; stroke-width:0.25;"/>
<line x1="70.700000" y1="64.000000" x2="86.700000" y2="64.000000"  style="stroke:black; stroke-linecap:round; stroke-width:0.25;"/>
<line x1="70.700000" y1="144.000000" x2="86.700000" y2="144.000000"  style="stroke:black; stroke-linecap:round; stroke-width:0.25;"/>
<line x1="86.700000" y1="64.000000" x2="102.700000" y2="64.000000"  style="stroke:black; stroke-linecap:round; stroke-width:0.25;"/>
<line x1="86.700000" y1="144.000000" x2="102.700000" y2="144.000000"  style="stroke:black; stroke-linecap:round; stroke-width:0.25;"/>
<line x1="98.700000" y1="84.000000" x2="102.700000" y2="84.000000"  style="stroke:black; stroke-linecap:round; stroke-width:0.25;"/>
<line x1="98.700000" y1="164.000000" x2="102.700000" y2="164.000000"  style="stroke:black; stroke-linecap:round; stroke-width:0.25;"/>
<line x1="102.700000" y1="64.000000" x2="137.400000" y2="64.000000"  style="stroke:black; stroke-linecap:round; stroke-width:0.25;"/>
<line x1="102.700000" y1="84.000000" x2="137.400000" y2="84.000000"  style="stroke:black; stroke-linecap:round; stroke-width:0.25;"/>
<line x1="102.700000" y1="144.000000" x2="137.400000" y2="144.000000"  style="stroke:black; stroke-linecap:round; stroke-width:0.25;"/>
<line x1="102.700000" y1="164.000000" x2="137.400000" y2="164.000000"  style="stroke:black; stroke-linecap:round; stroke-width:0.25;"/>
<line x1="117.400000" y1="36.000000" x2="121.400000" y2="36.000000"  style="stroke:black; stroke-linecap:round; stroke-width:0.25;"/>
<line x1="117.400000" y1="116.000000" x2="121.400000" y2="116.000000"  style="stroke:black; stroke-linecap:round; stroke-width:0.25;"/>
<line x1="121.400000" y1="36.000000" x2="129.400000" y2="36.000000"  style="stroke:black; stroke-linecap:round; stroke-width:0.25;"/>
<line x1="121.400000" y1="116.000000" x2="129.400000" y2="116.000000"  style="stroke:black; stroke-linecap:round; stroke-width:0.25;"/>
<line x1="129.400000" y1="36.000000" x2="129.400000" y2="39.960000"  style="stroke:black; stroke-linecap:round; stroke-width:0.25;"/>
<line x1="129.400000" y1="39.960000" x2="137.400000" y2="39.960000"  style="stroke:black; stroke-linecap:round; stroke-width:0.25;"/>
<line x1="129.400000" y1="116.000000" x2="129.400000" y2="119.960000"  style="stroke:black; stroke-linecap:round; stroke-width:0.25;"/>
<line x1="129.400000" y1="119.960000" x2="137.400000" y2="119.960000"  style="stroke:black; stroke-linecap:round; stroke-width:0.25;"/>
<line x1="137.400000" y1="39.960000" x2="153.400000" y2="39.960000"  style="stroke:black; stroke-linecap:round; stroke-width:0.25;"/>
<line x1="137.400000" y1="60.000000" x2="153.400000" y2="60.000000"  style="stroke:black; stroke-linecap:round; stroke-width:0.25;"/>
<line x1="137.400000" y1="64.000000" x2="137.400000" y2="60.000000"  style="stroke:black; stroke-linecap:round; stroke-width:0.25;"/>
<line x1="137.400000" y1="64.000000" x2="137.400000" y2="64.000000"  style="stroke:black; stroke-linecap:round; stroke-width:0.25;"/>
<line x1="137.400000" y1="84.000000" x2="145.400000" y2="84.000000"  style="stroke:black; stroke-linecap:round; stroke-width:0.25;"/>
<line x1="137.400000" y1="119.960000" x2="153.400000" y2="119.960000"  style="stroke:black; stroke-linecap:round; stroke-width:0.25;"/>
<line x1="137.400000" y1="140.000000" x2="153.400000" y2="140.000000"  style="stroke:black; stroke-linecap:round; stroke-width:0.25;"/>
<line x1="137.400000" y1="144.000000" x2="137.400000" y2="140.000000"  style="stroke:black; stroke-linecap:round; stroke-width:0.25;"/>
<line x1="137.400000" y1="144.000000" x2="137.400000" y2="144.000000"  style="stroke:black; stroke-linecap:round; stroke-width:0.25;"/>
<line x1="137.400000" y1="164.000000" x2="145.400000" y2="164.000000"  style="stroke:black; stroke-linecap:round; stroke-width:0.25;"/>
<line x1="145.400000" y1="68.000000" x2="153.400000" y2="68.000000"  style="stroke:black; stroke-linecap:round; stroke-width:0.25;"/>
<line x1="145.400000" y1="84.000000" x2="145.400000" y2="68.000000"  style="stroke:black; stroke-linecap:round; stroke-width:0.25;"/>
<line x1="145.400000" y1="148.000000" x2="153.400000" y2="148.000000"  style="stroke:black; stroke-linecap:round; stroke-width:0.25;"/>
<line x1="145.400000" y1="164.000000" x2="145.400000" y2="148.000000"  style="stroke:black; stroke-linecap:round; stroke-width:0.25;"/>
<line x1="153.400000" y1="39.960000" x2="153.400000" y2="52.000000"  style="stroke:black; stroke-linecap:round; stroke-width:0.25;"/>
<line x1="153.400000" y1="52.000000" x2="153.400000" y2="52.000000"  style="stroke:black; stroke-linecap:round; stroke-width:0.25;"/>
<line x1="153.400000" y1="52.000000" x2="157.400000" y2="52.000000"  style="stroke:black; stroke-linecap:round; stroke-width:0.25;"/>
<line x1="153.400000" y1="60.000000" x2="157.400000" y2="60.000000"  style="stroke:black; stroke-linecap:round; stroke-width:0.25;"/>
<line x1="153.400000" y1="68.000000" x2="157.400000" y2="68.000000"  style="stroke:black; stroke-linecap:round; stroke-width:0.25;"/>
<line x1="153.400000" y1="119.960000" x2="153.400000" y2="132.000000"  style="stroke:black; stroke-linecap:round; stroke-width:0.25;"/>
<line x1="153.400000" y1="132.000000" x2="153.400000" y2="132.000000"  style="stroke:black; stroke-linecap:round; stroke-width:0.25;"/>
<line x1="153.400000" y1="132.000000" x2="157.400000" y2="132.000000"  style="stroke:black; stroke-linecap:round; stroke-width:0.25;"/>
<line x1="153.400000" y1="140.000000" x2="157.400000" y2="140.000000"  style="stroke:black; stroke-linecap:round; stroke-width:0.25;"/>
<line x1="153.400000" y1="148.000000" x2="157.400000" y2="148.000000"  style="stroke:black; stroke-linecap:round; stroke-width:0.25;"/>
<line x1="196.100000" y1="60.000000" x2="200.100000" y2="60.000000"  style="stroke:black; stroke-linecap:round; stroke-width:0.25;"/>
<line x1="196.100000" y1="140.000000" x2="200.100000" y2="140.000000"  style="stroke:black; stroke-linecap:round; stroke-width:0.25;"/>
<line x1="200.100000" y1="60.000000" x2="208.100000" y2="60.000000"  style="stroke:black; stroke-linecap:round; stroke-width:0.25;"/>
<line x1="200.100000" y1="104.000000" x2="208.100000" y2="104.000000"  style="stroke:black; stroke-linecap:round; stroke-width:0.25;"/>
<line x1="200.100000" y1="140.000000" x2="200.100000" y2="104.000000"  style="stroke:black; stroke-linecap:round; stroke-width:0.25;"/>
<line x1="200.100000" y1="140.000000" x2="200.100000" y2="140.000000"  style="stroke:black; stroke-linecap:round; stroke-width:0.25;"/>
<line x1="208.100000" y1="60.000000" x2="208.100000" y2="96.000000"  style="stroke:black; stroke-linecap:round; stroke-width:0.25;"/>
<line x1="208.100000" y1="96.000000" x2="208.100000" y2="96.000000"  style="stroke:black; stroke-linecap:round; stroke-width:0.25;"/>
<line x1="208.100000" y1="96.000000" x2="208.100000" y2="96.000000"  style="stroke:black; stroke-linecap:round; stroke-width:0.25;"/>
<line x1="208.100000" y1="96.000000" x2="212.100000" y2="96.000000"  style="stroke:black; stroke-linecap:round; stroke-width:0.25;"/>
<line x1="208.100000" y1="104.000000" x2="208.100000" y2="104.000000"  style="stroke:black; stroke-linecap:round; stroke-width:0.25;"/>
<line x1="208.100000" y1="104.000000" x2="212.100000" y2="104.000000"  style="stroke:black; stroke-linecap:round; stroke-width:0.25;"/>
<line x1="212.100000" y1="96.000000" x2="216.100000" y2="96.000000"  style="stroke:black; stroke-linecap:round; stroke-width:0.25;"/>
<line x1="212.100000" y1="104.000000" x2="216.100000" y2="104.000000"  style="stroke:black; stroke-linecap:round; stroke-width:0.25;"/>
<line x1="216.100000" y1="96.000000" x2="226.100000" y2="96.000000"  style="stroke:black; stroke-linecap:round; stroke-width:0.25;"/>
<line x1="216.100000" y1="104.000000" x2="226.100000" y2="104.000000"  style="stroke:black; stroke-linecap:round; stroke-width:0.25;"/>
</svg>
