<?xml version="1.0"?>
<svg xmlns="http://www.w3.org/2000/svg" xmlns:xlink="http://www.w3.org/1999/xlink" viewBox="0 0 162.300000 168.000000" width="81.150000mm" height="84.000000mm" version="1.1">
<a xlink:href="inswitch-0x7fa31016e2e0.svg">
<rect x="1.000000" y="1.000000" width="161.300000" height="167.000000" rx="0" ry="0" style="stroke:none;fill:#cccccc;"/>
<rect x="0.000000" y="0.000000" width="161.300000" height="167.000000" rx="0" ry="0" style="stroke:none;fill:#ffffff;"/>
</a>
<text x="10.000000" y="7.000000" font-family="Arial" font-size="7"></text>
<rect x="25.000000" y="25.000000" width="90.300000" height="24.000000" rx="0" ry="0" style="stroke:none;fill:#cccccc;"/>
<rect x="24.000000" y="24.000000" width="90.300000" height="24.000000" rx="0" ry="0" style="stroke:none;fill:#477881;"/>
<text x="69.150000" y="38.000000" font-family="Arial" font-size="7" text-anchor="middle" fill="#FFFFFF">button(cue_toggle0)</text>
<circle cx="26.000000" cy="26.000000" r="1"/>
<rect x="25.000000" y="57.000000" width="90.300000" height="24.000000" rx="0" ry="0" style="stroke:none;fill:#cccccc;"/>
<rect x="24.000000" y="56.000000" width="90.300000" height="24.000000" rx="0" ry="0" style="stroke:none;fill:#477881;"/>
<text x="69.150000" y="70.000000" font-family="Arial" font-size="7" text-anchor="middle" fill="#FFFFFF">button(cue_toggle1)</text>
<circle cx="26.000000" cy="58.000000" r="1"/>
<rect x="25.000000" y="89.000000" width="90.300000" height="24.000000" rx="0" ry="0" style="stroke:none;fill:#cccccc;"/>
<rect x="24.000000" y="88.000000" width="90.300000" height="24.000000" rx="0" ry="0" style="stroke:none;fill:#477881;"/>
<text x="69.150000" y="102.000000" font-family="Arial" font-size="7" text-anchor="middle" fill="#FFFFFF">button(cue_toggle2)</text>
<circle cx="26.000000" cy="90.000000" r="1"/>
<rect x="25.000000" y="121.000000" width="90.300000" height="24.000000" rx="0" ry="0" style="stroke:none;fill:#cccccc;"/>
<rect x="24.000000" y="120.000000" width="90.300000" height="24.000000" rx="0" ry="0" style="stroke:none;fill:#477881;"/>
<text x="69.150000" y="134.000000" font-family="Arial" font-size="7" text-anchor="middle" fill="#FFFFFF">button(cue_toggle3)</text>
<circle cx="26.000000" cy="122.000000" r="1"/>
<line x1="15.000000" y1="15.000000" x2="15.000000" y2="153.000000"  style="stroke: black; stroke-linecap:round; stroke-width:0.25; stroke-dasharray:3,3;"/>
<line x1="15.000000" y1="153.000000" x2="147.300000" y2="153.000000"  style="stroke: black; stroke-linecap:round; stroke-width:0.25; stroke-dasharray:3,3;"/>
<line x1="147.300000" y1="153.000000" x2="147.300000" y2="15.000000"  style="stroke: black; stroke-linecap:round; stroke-width:0.25; stroke-dasharray:3,3;"/>
<line x1="15.000000" y1="15.000000" x2="20.000000" y2="15.000000"  style="stroke: black; stroke-linecap:round; stroke-width:0.25; stroke-dasharray:3,3;"/>
<line x1="84.500000" y1="15.000000" x2="147.300000" y2="15.000000"  style="stroke: black; stroke-linecap:round; stroke-width:0.25; stroke-dasharray:3,3;"/>
<text x="20.000000" y="17.000000" font-family="Arial" font-size="7">params_cue_toggles</text>
<line x1="149.300000" y1="71.000000" x2="152.300000" y2="72.000000"  transform="rotate(0.000000,152.300000,72.000000)" style="stroke: black; stroke-width:0.25;"/>
<line x1="149.300000" y1="73.000000" x2="152.300000" y2="72.000000"  transform="rotate(0.000000,152.300000,72.000000)" style="stroke: black; stroke-width:0.25;"/>
<line x1="149.300000" y1="79.000000" x2="152.300000" y2="80.000000"  transform="rotate(0.000000,152.300000,80.000000)" style="stroke: black; stroke-width:0.25;"/>
<line x1="149.300000" y1="81.000000" x2="152.300000" y2="80.000000"  transform="rotate(0.000000,152.300000,80.000000)" style="stroke: black; stroke-width:0.25;"/>
<line x1="149.300000" y1="87.000000" x2="152.300000" y2="88.000000"  transform="rotate(0.000000,152.300000,88.000000)" style="stroke: black; stroke-width:0.25;"/>
<line x1="149.300000" y1="89.000000" x2="152.300000" y2="88.000000"  transform="rotate(0.000000,152.300000,88.000000)" style="stroke: black; stroke-width:0.25;"/>
<line x1="149.300000" y1="95.000000" x2="152.300000" y2="96.000000"  transform="rotate(0.000000,152.300000,96.000000)" style="stroke: black; stroke-width:0.25;"/>
<line x1="149.300000" y1="97.000000" x2="152.300000" y2="96.000000"  transform="rotate(0.000000,152.300000,96.000000)" style="stroke: black; stroke-width:0.25;"/>
<line x1="114.300000" y1="36.000000" x2="118.300000" y2="36.000000"  style="stroke:black; stroke-linecap:round; stroke-width:0.25;"/>
<line x1="114.300000" y1="68.000000" x2="118.300000" y2="68.000000"  style="stroke:black; stroke-linecap:round; stroke-width:0.25;"/>
<line x1="114.300000" y1="100.000000" x2="118.300000" y2="100.000000"  style="stroke:black; stroke-linecap:round; stroke-width:0.25;"/>
<line x1="114.300000" y1="132.000000" x2="118.300000" y2="132.000000"  style="stroke:black; stroke-linecap:round; stroke-width:0.25;"/>
<line x1="118.300000" y1="36.000000" x2="134.300000" y2="36.000000"  style="stroke:black; stroke-linecap:round; stroke-width:0.25;"/>
<line x1="118.300000" y1="68.000000" x2="126.300000" y2="68.000000"  style="stroke:black; stroke-linecap:round; stroke-width:0.25;"/>
<line x1="118.300000" y1="88.000000" x2="134.300000" y2="88.000000"  style="stroke:black; stroke-linecap:round; stroke-width:0.25;"/>
<line x1="118.300000" y1="100.000000" x2="118.300000" y2="88.000000"  style="stroke:black; stroke-linecap:round; stroke-width:0.25;"/>
<line x1="118.300000" y1="100.000000" x2="118.300000" y2="100.000000"  style="stroke:black; stroke-linecap:round; stroke-width:0.25;"/>
<line x1="118.300000" y1="132.000000" x2="126.300000" y2="132.000000"  style="stroke:black; stroke-linecap:round; stroke-width:0.25;"/>
<line x1="126.300000" y1="68.000000" x2="126.300000" y2="80.000000"  style="stroke:black; stroke-linecap:round; stroke-width:0.25;"/>
<line x1="126.300000" y1="80.000000" x2="134.300000" y2="80.000000"  style="stroke:black; stroke-linecap:round; stroke-width:0.25;"/>
<line x1="126.300000" y1="96.000000" x2="134.300000" y2="96.000000"  style="stroke:black; stroke-linecap:round; stroke-width:0.25;"/>
<line x1="126.300000" y1="132.000000" x2="126.300000" y2="96.000000"  style="stroke:black; stroke-linecap:round; stroke-width:0.25;"/>
<line x1="134.300000" y1="36.000000" x2="134.300000" y2="72.000000"  style="stroke:black; stroke-linecap:round; stroke-width:0.25;"/>
<line x1="134.300000" y1="72.000000" x2="134.300000" y2="72.000000"  style="stroke:black; stroke-linecap:round; stroke-width:0.25;"/>
<line x1="134.300000" y1="72.000000" x2="138.300000" y2="72.000000"  style="stroke:black; stroke-linecap:round; stroke-width:0.25;"/>
<line x1="134.300000" y1="80.000000" x2="138.300000" y2="80.000000"  style="stroke:black; stroke-linecap:round; stroke-width:0.25;"/>
<line x1="134.300000" y1="88.000000" x2="138.300000" y2="88.000000"  style="stroke:black; stroke-linecap:round; stroke-width:0.25;"/>
<line x1="134.300000" y1="96.000000" x2="138.300000" y2="96.000000"  style="stroke:black; stroke-linecap:round; stroke-width:0.25;"/>
<line x1="138.300000" y1="72.000000" x2="142.300000" y2="72.000000"  style="stroke:black; stroke-linecap:round; stroke-width:0.25;"/>
<line x1="138.300000" y1="80.000000" x2="142.300000" y2="80.000000"  style="stroke:black; stroke-linecap:round; stroke-width:0.25;"/>
<line x1="138.300000" y1="88.000000" x2="142.300000" y2="88.000000"  style="stroke:black; stroke-linecap:round; stroke-width:0.25;"/>
<line x1="138.300000" y1="96.000000" x2="142.300000" y2="96.000000"  style="stroke:black; stroke-linecap:round; stroke-width:0.25;"/>
<line x1="142.300000" y1="72.000000" x2="152.300000" y2="72.000000"  style="stroke:black; stroke-linecap:round; stroke-width:0.25;"/>
<line x1="142.300000" y1="80.000000" x2="152.300000" y2="80.000000"  style="stroke:black; stroke-linecap:round; stroke-width:0.25;"/>
<line x1="142.300000" y1="88.000000" x2="152.300000" y2="88.000000"  style="stroke:black; stroke-linecap:round; stroke-width:0.25;"/>
<line x1="142.300000" y1="96.000000" x2="152.300000" y2="96.000000"  style="stroke:black; stroke-linecap:round; stroke-width:0.25;"/>
</svg>
